<mxfile host="Electron" modified="2025-08-29T09:05:25.064Z" agent="Mozilla/5.0 (Macintosh; Intel Mac OS X 10_15_7) AppleWebKit/537.36 (KHTML, like Gecko) draw.io/24.6.4 Chrome/124.0.6367.207 Electron/30.0.6 Safari/537.36" etag="hwA_2BJ_Xfe4js0gt2V3" version="24.6.4" type="device">
  <diagram name="Seite-1" id="PUwBF07ftfBeqFrbT5Ts">
    <mxGraphModel dx="5880" dy="2188" grid="1" gridSize="10" guides="1" tooltips="1" connect="1" arrows="1" fold="1" page="1" pageScale="1" pageWidth="827" pageHeight="1169" math="0" shadow="0">
      <root>
        <mxCell id="0" />
        <mxCell id="1" parent="0" />
        <mxCell id="gbSJtvOBGEGAZwpAqEEM-1" value="&lt;b&gt;&lt;font style=&quot;font-size: 30px;&quot;&gt;API&amp;nbsp;&lt;/font&gt;&lt;/b&gt;&lt;div&gt;&lt;font style=&quot;font-size: 30px;&quot;&gt;Application Programing Interface&lt;/font&gt;&lt;/div&gt;" style="text;html=1;align=left;verticalAlign=middle;whiteSpace=wrap;rounded=0;" parent="1" vertex="1">
          <mxGeometry x="40" y="20" width="460" height="120" as="geometry" />
        </mxCell>
        <mxCell id="gbSJtvOBGEGAZwpAqEEM-2" value="" style="ellipse;shape=cloud;whiteSpace=wrap;html=1;" parent="1" vertex="1">
          <mxGeometry x="310" y="220" width="120" height="80" as="geometry" />
        </mxCell>
        <mxCell id="gbSJtvOBGEGAZwpAqEEM-3" value="User" style="shape=umlActor;verticalLabelPosition=bottom;verticalAlign=top;html=1;outlineConnect=0;" parent="1" vertex="1">
          <mxGeometry x="60" y="190" width="30" height="60" as="geometry" />
        </mxCell>
        <mxCell id="gbSJtvOBGEGAZwpAqEEM-5" style="edgeStyle=orthogonalEdgeStyle;rounded=0;orthogonalLoop=1;jettySize=auto;html=1;" parent="1" source="gbSJtvOBGEGAZwpAqEEM-4" target="gbSJtvOBGEGAZwpAqEEM-2" edge="1">
          <mxGeometry relative="1" as="geometry" />
        </mxCell>
        <mxCell id="gbSJtvOBGEGAZwpAqEEM-8" value="http" style="edgeLabel;html=1;align=center;verticalAlign=middle;resizable=0;points=[];" parent="gbSJtvOBGEGAZwpAqEEM-5" vertex="1" connectable="0">
          <mxGeometry x="0.3641" y="1" relative="1" as="geometry">
            <mxPoint as="offset" />
          </mxGeometry>
        </mxCell>
        <mxCell id="gbSJtvOBGEGAZwpAqEEM-4" value="FrontEnd" style="html=1;verticalLabelPosition=bottom;align=center;labelBackgroundColor=#ffffff;verticalAlign=top;strokeWidth=2;strokeColor=#0080F0;shadow=0;dashed=0;shape=mxgraph.ios7.icons.smartphone;" parent="1" vertex="1">
          <mxGeometry x="120" y="200" width="30" height="50" as="geometry" />
        </mxCell>
        <mxCell id="gbSJtvOBGEGAZwpAqEEM-19" style="edgeStyle=orthogonalEdgeStyle;rounded=0;orthogonalLoop=1;jettySize=auto;html=1;" parent="1" source="gbSJtvOBGEGAZwpAqEEM-6" target="gbSJtvOBGEGAZwpAqEEM-7" edge="1">
          <mxGeometry relative="1" as="geometry" />
        </mxCell>
        <mxCell id="gbSJtvOBGEGAZwpAqEEM-20" style="edgeStyle=orthogonalEdgeStyle;rounded=0;orthogonalLoop=1;jettySize=auto;html=1;" parent="1" source="gbSJtvOBGEGAZwpAqEEM-6" target="gbSJtvOBGEGAZwpAqEEM-11" edge="1">
          <mxGeometry relative="1" as="geometry" />
        </mxCell>
        <mxCell id="gbSJtvOBGEGAZwpAqEEM-6" value="Server" style="image;html=1;image=img/lib/clip_art/computers/Server_128x128.png" parent="1" vertex="1">
          <mxGeometry x="330" y="700" width="80" height="80" as="geometry" />
        </mxCell>
        <mxCell id="gbSJtvOBGEGAZwpAqEEM-7" value="DatenBank" style="shape=cylinder3;whiteSpace=wrap;html=1;boundedLbl=1;backgroundOutline=1;size=15;" parent="1" vertex="1">
          <mxGeometry x="160" y="700" width="60" height="80" as="geometry" />
        </mxCell>
        <mxCell id="gbSJtvOBGEGAZwpAqEEM-9" value="&lt;div&gt;Browser&lt;/div&gt;&lt;div&gt;WebClient&lt;/div&gt;" style="text;html=1;align=center;verticalAlign=middle;whiteSpace=wrap;rounded=0;" parent="1" vertex="1">
          <mxGeometry x="60" y="290" width="80" height="60" as="geometry" />
        </mxCell>
        <mxCell id="gbSJtvOBGEGAZwpAqEEM-10" value="HTML&lt;div&gt;JavaScript&lt;/div&gt;" style="shape=note;whiteSpace=wrap;html=1;backgroundOutline=1;darkOpacity=0.05;" parent="1" vertex="1">
          <mxGeometry x="140" y="290" width="65" height="80" as="geometry" />
        </mxCell>
        <mxCell id="gbSJtvOBGEGAZwpAqEEM-23" style="edgeStyle=orthogonalEdgeStyle;rounded=0;orthogonalLoop=1;jettySize=auto;html=1;entryX=0.75;entryY=1;entryDx=0;entryDy=0;" parent="1" source="gbSJtvOBGEGAZwpAqEEM-11" target="gbSJtvOBGEGAZwpAqEEM-12" edge="1">
          <mxGeometry relative="1" as="geometry">
            <Array as="points">
              <mxPoint x="408" y="473" />
            </Array>
          </mxGeometry>
        </mxCell>
        <mxCell id="gbSJtvOBGEGAZwpAqEEM-11" value="API" style="rounded=0;whiteSpace=wrap;html=1;" parent="1" vertex="1">
          <mxGeometry x="310" y="555" width="120" height="60" as="geometry" />
        </mxCell>
        <mxCell id="gbSJtvOBGEGAZwpAqEEM-22" style="edgeStyle=orthogonalEdgeStyle;rounded=0;orthogonalLoop=1;jettySize=auto;html=1;" parent="1" source="gbSJtvOBGEGAZwpAqEEM-12" target="gbSJtvOBGEGAZwpAqEEM-11" edge="1">
          <mxGeometry relative="1" as="geometry">
            <Array as="points">
              <mxPoint x="370" y="430" />
              <mxPoint x="370" y="430" />
            </Array>
          </mxGeometry>
        </mxCell>
        <mxCell id="gbSJtvOBGEGAZwpAqEEM-12" value="&lt;div style=&quot;text-align: left;&quot;&gt;&lt;b&gt;&lt;span style=&quot;background-color: initial;&quot;&gt;URL&lt;/span&gt;&lt;br&gt;&lt;/b&gt;&lt;/div&gt;&lt;div style=&quot;text-align: left;&quot;&gt;&lt;span style=&quot;background-color: initial;&quot;&gt;Uniform&amp;nbsp;&lt;/span&gt;&lt;/div&gt;&lt;div style=&quot;text-align: left;&quot;&gt;&lt;span style=&quot;background-color: initial;&quot;&gt;Ressource&amp;nbsp;&lt;/span&gt;&lt;/div&gt;&lt;div style=&quot;text-align: left;&quot;&gt;&lt;span style=&quot;background-color: initial;&quot;&gt;Locator&lt;/span&gt;&lt;/div&gt;" style="rounded=0;whiteSpace=wrap;html=1;" parent="1" vertex="1">
          <mxGeometry x="310" y="310" width="130" height="80" as="geometry" />
        </mxCell>
        <mxCell id="gbSJtvOBGEGAZwpAqEEM-13" style="edgeStyle=orthogonalEdgeStyle;rounded=0;orthogonalLoop=1;jettySize=auto;html=1;entryX=0;entryY=0;entryDx=65;entryDy=55;entryPerimeter=0;" parent="1" source="gbSJtvOBGEGAZwpAqEEM-12" target="gbSJtvOBGEGAZwpAqEEM-10" edge="1">
          <mxGeometry relative="1" as="geometry" />
        </mxCell>
        <mxCell id="gbSJtvOBGEGAZwpAqEEM-14" style="edgeStyle=orthogonalEdgeStyle;rounded=0;orthogonalLoop=1;jettySize=auto;html=1;entryX=0.13;entryY=0.77;entryDx=0;entryDy=0;entryPerimeter=0;" parent="1" source="gbSJtvOBGEGAZwpAqEEM-10" target="gbSJtvOBGEGAZwpAqEEM-2" edge="1">
          <mxGeometry relative="1" as="geometry" />
        </mxCell>
        <mxCell id="gbSJtvOBGEGAZwpAqEEM-16" value="https://www.chip.de/bestenlisten/bla.html&lt;div&gt;&lt;br&gt;&lt;/div&gt;&lt;div&gt;https://www.chip.de&lt;b&gt;/api/v1/articles&lt;/b&gt;&lt;br&gt;&lt;/div&gt;&lt;div&gt;https://www.chip.de&lt;b&gt;/api/v2/articles&lt;/b&gt;&lt;b&gt;&lt;br&gt;&lt;/b&gt;&lt;/div&gt;" style="text;html=1;align=center;verticalAlign=middle;whiteSpace=wrap;rounded=0;" parent="1" vertex="1">
          <mxGeometry x="430" y="300" width="310" height="90" as="geometry" />
        </mxCell>
        <mxCell id="gbSJtvOBGEGAZwpAqEEM-17" value="&lt;b&gt;Uniform Resource Identifier&lt;/b&gt;" style="text;whiteSpace=wrap;html=1;" parent="1" vertex="1">
          <mxGeometry x="570" y="230" width="190" height="40" as="geometry" />
        </mxCell>
        <mxCell id="gbSJtvOBGEGAZwpAqEEM-21" value="Programm&lt;div&gt;Software&lt;/div&gt;" style="shape=note;whiteSpace=wrap;html=1;backgroundOutline=1;darkOpacity=0.05;" parent="1" vertex="1">
          <mxGeometry x="414" y="650" width="70" height="80" as="geometry" />
        </mxCell>
        <mxCell id="gbSJtvOBGEGAZwpAqEEM-24" value="json" style="shape=note;whiteSpace=wrap;html=1;backgroundOutline=1;darkOpacity=0.05;" parent="1" vertex="1">
          <mxGeometry x="340" y="420" width="80" height="100" as="geometry" />
        </mxCell>
        <mxCell id="gbSJtvOBGEGAZwpAqEEM-25" value="RESTful&lt;div&gt;(API GW)&lt;/div&gt;" style="rounded=0;whiteSpace=wrap;html=1;" parent="1" vertex="1">
          <mxGeometry x="60" y="950" width="120" height="60" as="geometry" />
        </mxCell>
        <mxCell id="gbSJtvOBGEGAZwpAqEEM-26" value="" style="endArrow=none;html=1;rounded=0;" parent="1" edge="1">
          <mxGeometry width="50" height="50" relative="1" as="geometry">
            <mxPoint x="-310" y="890" as="sourcePoint" />
            <mxPoint x="1220" y="890" as="targetPoint" />
          </mxGeometry>
        </mxCell>
        <mxCell id="gbSJtvOBGEGAZwpAqEEM-31" style="edgeStyle=orthogonalEdgeStyle;rounded=0;orthogonalLoop=1;jettySize=auto;html=1;entryX=0.75;entryY=1;entryDx=0;entryDy=0;" parent="1" source="gbSJtvOBGEGAZwpAqEEM-27" target="gbSJtvOBGEGAZwpAqEEM-25" edge="1">
          <mxGeometry relative="1" as="geometry" />
        </mxCell>
        <mxCell id="gbSJtvOBGEGAZwpAqEEM-27" value="Dokumentation" style="shape=note;whiteSpace=wrap;html=1;backgroundOutline=1;darkOpacity=0.05;" parent="1" vertex="1">
          <mxGeometry x="200" y="1010" width="120" height="100" as="geometry" />
        </mxCell>
        <mxCell id="gbSJtvOBGEGAZwpAqEEM-28" value="Resquest" style="rounded=0;whiteSpace=wrap;html=1;" parent="1" vertex="1">
          <mxGeometry x="620" y="1020" width="120" height="60" as="geometry" />
        </mxCell>
        <mxCell id="gbSJtvOBGEGAZwpAqEEM-30" style="edgeStyle=orthogonalEdgeStyle;rounded=0;orthogonalLoop=1;jettySize=auto;html=1;entryX=1.025;entryY=0.72;entryDx=0;entryDy=0;entryPerimeter=0;" parent="1" source="gbSJtvOBGEGAZwpAqEEM-28" target="gbSJtvOBGEGAZwpAqEEM-27" edge="1">
          <mxGeometry relative="1" as="geometry" />
        </mxCell>
        <mxCell id="gbSJtvOBGEGAZwpAqEEM-34" style="edgeStyle=orthogonalEdgeStyle;rounded=0;orthogonalLoop=1;jettySize=auto;html=1;" parent="1" source="gbSJtvOBGEGAZwpAqEEM-32" target="gbSJtvOBGEGAZwpAqEEM-28" edge="1">
          <mxGeometry relative="1" as="geometry" />
        </mxCell>
        <mxCell id="gbSJtvOBGEGAZwpAqEEM-32" value=".json" style="shape=note;whiteSpace=wrap;html=1;backgroundOutline=1;darkOpacity=0.05;" parent="1" vertex="1">
          <mxGeometry x="340" y="910" width="80" height="100" as="geometry" />
        </mxCell>
        <mxCell id="gbSJtvOBGEGAZwpAqEEM-33" style="edgeStyle=orthogonalEdgeStyle;rounded=0;orthogonalLoop=1;jettySize=auto;html=1;entryX=0;entryY=0.5;entryDx=0;entryDy=0;entryPerimeter=0;" parent="1" source="gbSJtvOBGEGAZwpAqEEM-25" target="gbSJtvOBGEGAZwpAqEEM-32" edge="1">
          <mxGeometry relative="1" as="geometry">
            <Array as="points">
              <mxPoint x="220" y="960" />
              <mxPoint x="220" y="960" />
            </Array>
          </mxGeometry>
        </mxCell>
        <mxCell id="gbSJtvOBGEGAZwpAqEEM-47" style="edgeStyle=orthogonalEdgeStyle;rounded=0;orthogonalLoop=1;jettySize=auto;html=1;" parent="1" source="gbSJtvOBGEGAZwpAqEEM-35" target="gbSJtvOBGEGAZwpAqEEM-36" edge="1">
          <mxGeometry relative="1" as="geometry" />
        </mxCell>
        <mxCell id="gbSJtvOBGEGAZwpAqEEM-53" style="edgeStyle=orthogonalEdgeStyle;rounded=0;orthogonalLoop=1;jettySize=auto;html=1;" parent="1" source="gbSJtvOBGEGAZwpAqEEM-35" target="gbSJtvOBGEGAZwpAqEEM-50" edge="1">
          <mxGeometry relative="1" as="geometry" />
        </mxCell>
        <mxCell id="gbSJtvOBGEGAZwpAqEEM-54" style="edgeStyle=orthogonalEdgeStyle;rounded=0;orthogonalLoop=1;jettySize=auto;html=1;" parent="1" source="gbSJtvOBGEGAZwpAqEEM-35" target="gbSJtvOBGEGAZwpAqEEM-52" edge="1">
          <mxGeometry relative="1" as="geometry" />
        </mxCell>
        <mxCell id="gbSJtvOBGEGAZwpAqEEM-55" style="edgeStyle=orthogonalEdgeStyle;rounded=0;orthogonalLoop=1;jettySize=auto;html=1;" parent="1" source="gbSJtvOBGEGAZwpAqEEM-35" target="gbSJtvOBGEGAZwpAqEEM-51" edge="1">
          <mxGeometry relative="1" as="geometry">
            <Array as="points">
              <mxPoint x="-20" y="1330" />
              <mxPoint x="-20" y="1450" />
            </Array>
          </mxGeometry>
        </mxCell>
        <mxCell id="gbSJtvOBGEGAZwpAqEEM-35" value="GraphQL&lt;div&gt;(z.B AppSync)&lt;/div&gt;" style="rounded=0;whiteSpace=wrap;html=1;" parent="1" vertex="1">
          <mxGeometry x="75" y="1300" width="120" height="60" as="geometry" />
        </mxCell>
        <mxCell id="gbSJtvOBGEGAZwpAqEEM-43" style="edgeStyle=orthogonalEdgeStyle;rounded=0;orthogonalLoop=1;jettySize=auto;html=1;entryX=0;entryY=0.5;entryDx=0;entryDy=0;" parent="1" source="gbSJtvOBGEGAZwpAqEEM-36" target="gbSJtvOBGEGAZwpAqEEM-42" edge="1">
          <mxGeometry relative="1" as="geometry" />
        </mxCell>
        <mxCell id="gbSJtvOBGEGAZwpAqEEM-36" value=".json" style="shape=note;whiteSpace=wrap;html=1;backgroundOutline=1;darkOpacity=0.05;" parent="1" vertex="1">
          <mxGeometry x="335" y="1280" width="80" height="100" as="geometry" />
        </mxCell>
        <mxCell id="gbSJtvOBGEGAZwpAqEEM-37" value="Resquest" style="rounded=0;whiteSpace=wrap;html=1;" parent="1" vertex="1">
          <mxGeometry x="630" y="1030" width="120" height="60" as="geometry" />
        </mxCell>
        <mxCell id="gbSJtvOBGEGAZwpAqEEM-38" value="Resquest" style="rounded=0;whiteSpace=wrap;html=1;" parent="1" vertex="1">
          <mxGeometry x="640" y="1040" width="120" height="60" as="geometry" />
        </mxCell>
        <mxCell id="gbSJtvOBGEGAZwpAqEEM-39" value="Resquest" style="rounded=0;whiteSpace=wrap;html=1;" parent="1" vertex="1">
          <mxGeometry x="650" y="1050" width="120" height="60" as="geometry" />
        </mxCell>
        <mxCell id="gbSJtvOBGEGAZwpAqEEM-40" value="Resquest" style="rounded=0;whiteSpace=wrap;html=1;" parent="1" vertex="1">
          <mxGeometry x="660" y="1060" width="120" height="60" as="geometry" />
        </mxCell>
        <mxCell id="gbSJtvOBGEGAZwpAqEEM-41" value="Darstellung" style="rounded=0;whiteSpace=wrap;html=1;" parent="1" vertex="1">
          <mxGeometry x="827" y="1000" width="120" height="60" as="geometry" />
        </mxCell>
        <mxCell id="gbSJtvOBGEGAZwpAqEEM-45" style="edgeStyle=orthogonalEdgeStyle;rounded=0;orthogonalLoop=1;jettySize=auto;html=1;entryX=1;entryY=0.5;entryDx=0;entryDy=0;" parent="1" source="gbSJtvOBGEGAZwpAqEEM-42" target="gbSJtvOBGEGAZwpAqEEM-44" edge="1">
          <mxGeometry relative="1" as="geometry">
            <Array as="points">
              <mxPoint x="890" y="1370" />
              <mxPoint x="840" y="1370" />
              <mxPoint x="840" y="1420" />
            </Array>
          </mxGeometry>
        </mxCell>
        <mxCell id="gbSJtvOBGEGAZwpAqEEM-42" value="Darstellung" style="rounded=0;whiteSpace=wrap;html=1;" parent="1" vertex="1">
          <mxGeometry x="827" y="1290" width="120" height="60" as="geometry" />
        </mxCell>
        <mxCell id="gbSJtvOBGEGAZwpAqEEM-46" style="edgeStyle=orthogonalEdgeStyle;rounded=0;orthogonalLoop=1;jettySize=auto;html=1;" parent="1" source="gbSJtvOBGEGAZwpAqEEM-44" target="gbSJtvOBGEGAZwpAqEEM-35" edge="1">
          <mxGeometry relative="1" as="geometry" />
        </mxCell>
        <mxCell id="gbSJtvOBGEGAZwpAqEEM-44" value="Resquest" style="rounded=0;whiteSpace=wrap;html=1;" parent="1" vertex="1">
          <mxGeometry x="700" y="1390" width="120" height="60" as="geometry" />
        </mxCell>
        <mxCell id="gbSJtvOBGEGAZwpAqEEM-48" value="" style="shape=cylinder3;whiteSpace=wrap;html=1;boundedLbl=1;backgroundOutline=1;size=15;" parent="1" vertex="1">
          <mxGeometry x="-100" y="940" width="60" height="80" as="geometry" />
        </mxCell>
        <mxCell id="gbSJtvOBGEGAZwpAqEEM-49" style="edgeStyle=orthogonalEdgeStyle;rounded=0;orthogonalLoop=1;jettySize=auto;html=1;entryX=1;entryY=0.5;entryDx=0;entryDy=0;entryPerimeter=0;" parent="1" source="gbSJtvOBGEGAZwpAqEEM-25" target="gbSJtvOBGEGAZwpAqEEM-48" edge="1">
          <mxGeometry relative="1" as="geometry" />
        </mxCell>
        <mxCell id="gbSJtvOBGEGAZwpAqEEM-50" value="s3" style="shape=cylinder3;whiteSpace=wrap;html=1;boundedLbl=1;backgroundOutline=1;size=15;" parent="1" vertex="1">
          <mxGeometry x="-110" y="1220" width="60" height="80" as="geometry" />
        </mxCell>
        <mxCell id="gbSJtvOBGEGAZwpAqEEM-51" value="RDS (MySQL)" style="shape=cylinder3;whiteSpace=wrap;html=1;boundedLbl=1;backgroundOutline=1;size=15;" parent="1" vertex="1">
          <mxGeometry x="-120" y="1410" width="60" height="80" as="geometry" />
        </mxCell>
        <mxCell id="gbSJtvOBGEGAZwpAqEEM-52" value="DynamoDB" style="shape=cylinder3;whiteSpace=wrap;html=1;boundedLbl=1;backgroundOutline=1;size=15;" parent="1" vertex="1">
          <mxGeometry x="-190" y="1310" width="60" height="80" as="geometry" />
        </mxCell>
        <mxCell id="gbSJtvOBGEGAZwpAqEEM-56" value="cache" style="rounded=0;whiteSpace=wrap;html=1;" parent="1" vertex="1">
          <mxGeometry x="250" y="750" width="70" height="30" as="geometry" />
        </mxCell>
        <mxCell id="gbSJtvOBGEGAZwpAqEEM-57" value="cache" style="rounded=0;whiteSpace=wrap;html=1;" parent="1" vertex="1">
          <mxGeometry x="290" y="540" width="70" height="30" as="geometry" />
        </mxCell>
        <mxCell id="gbSJtvOBGEGAZwpAqEEM-58" style="edgeStyle=orthogonalEdgeStyle;rounded=0;orthogonalLoop=1;jettySize=auto;html=1;" parent="1" source="gbSJtvOBGEGAZwpAqEEM-60" target="gbSJtvOBGEGAZwpAqEEM-61" edge="1">
          <mxGeometry relative="1" as="geometry" />
        </mxCell>
        <mxCell id="gbSJtvOBGEGAZwpAqEEM-59" style="edgeStyle=orthogonalEdgeStyle;rounded=0;orthogonalLoop=1;jettySize=auto;html=1;" parent="1" source="gbSJtvOBGEGAZwpAqEEM-60" target="gbSJtvOBGEGAZwpAqEEM-62" edge="1">
          <mxGeometry relative="1" as="geometry" />
        </mxCell>
        <mxCell id="gbSJtvOBGEGAZwpAqEEM-101" style="edgeStyle=orthogonalEdgeStyle;rounded=0;orthogonalLoop=1;jettySize=auto;html=1;" parent="1" source="gbSJtvOBGEGAZwpAqEEM-60" target="gbSJtvOBGEGAZwpAqEEM-100" edge="1">
          <mxGeometry relative="1" as="geometry">
            <Array as="points">
              <mxPoint x="-1500" y="610" />
              <mxPoint x="-1610" y="610" />
            </Array>
          </mxGeometry>
        </mxCell>
        <mxCell id="gbSJtvOBGEGAZwpAqEEM-60" value="Server" style="image;html=1;image=img/lib/clip_art/computers/Server_128x128.png" parent="1" vertex="1">
          <mxGeometry x="-1540" y="650" width="80" height="80" as="geometry" />
        </mxCell>
        <mxCell id="gbSJtvOBGEGAZwpAqEEM-61" value="DatenBank" style="shape=cylinder3;whiteSpace=wrap;html=1;boundedLbl=1;backgroundOutline=1;size=15;" parent="1" vertex="1">
          <mxGeometry x="-1710" y="650" width="60" height="80" as="geometry" />
        </mxCell>
        <mxCell id="gbSJtvOBGEGAZwpAqEEM-62" value="API" style="rounded=0;whiteSpace=wrap;html=1;" parent="1" vertex="1">
          <mxGeometry x="-1560" y="505" width="120" height="60" as="geometry" />
        </mxCell>
        <mxCell id="gbSJtvOBGEGAZwpAqEEM-63" value="Programm&lt;div&gt;Software&lt;/div&gt;" style="shape=note;whiteSpace=wrap;html=1;backgroundOutline=1;darkOpacity=0.05;" parent="1" vertex="1">
          <mxGeometry x="-1456" y="600" width="70" height="80" as="geometry" />
        </mxCell>
        <mxCell id="gbSJtvOBGEGAZwpAqEEM-64" value="json" style="shape=note;whiteSpace=wrap;html=1;backgroundOutline=1;darkOpacity=0.05;" parent="1" vertex="1">
          <mxGeometry x="-1580" y="340" width="80" height="100" as="geometry" />
        </mxCell>
        <mxCell id="gbSJtvOBGEGAZwpAqEEM-65" value="cache" style="rounded=0;whiteSpace=wrap;html=1;" parent="1" vertex="1">
          <mxGeometry x="-1620" y="700" width="70" height="30" as="geometry" />
        </mxCell>
        <mxCell id="gbSJtvOBGEGAZwpAqEEM-66" value="cache" style="rounded=0;whiteSpace=wrap;html=1;" parent="1" vertex="1">
          <mxGeometry x="-1580" y="490" width="70" height="30" as="geometry" />
        </mxCell>
        <mxCell id="gbSJtvOBGEGAZwpAqEEM-73" style="edgeStyle=orthogonalEdgeStyle;rounded=0;orthogonalLoop=1;jettySize=auto;html=1;" parent="1" source="gbSJtvOBGEGAZwpAqEEM-67" target="gbSJtvOBGEGAZwpAqEEM-72" edge="1">
          <mxGeometry relative="1" as="geometry" />
        </mxCell>
        <mxCell id="gbSJtvOBGEGAZwpAqEEM-67" value="Server" style="image;html=1;image=img/lib/clip_art/computers/Server_128x128.png" parent="1" vertex="1">
          <mxGeometry x="-2460" y="685" width="80" height="80" as="geometry" />
        </mxCell>
        <mxCell id="gbSJtvOBGEGAZwpAqEEM-77" style="edgeStyle=orthogonalEdgeStyle;rounded=0;orthogonalLoop=1;jettySize=auto;html=1;" parent="1" source="gbSJtvOBGEGAZwpAqEEM-68" target="gbSJtvOBGEGAZwpAqEEM-75" edge="1">
          <mxGeometry relative="1" as="geometry" />
        </mxCell>
        <mxCell id="gbSJtvOBGEGAZwpAqEEM-68" value="Server" style="image;html=1;image=img/lib/clip_art/computers/Server_128x128.png" parent="1" vertex="1">
          <mxGeometry x="-2350" y="685" width="80" height="80" as="geometry" />
        </mxCell>
        <mxCell id="gbSJtvOBGEGAZwpAqEEM-69" value="chip.de" style="whiteSpace=wrap;html=1;aspect=fixed;" parent="1" vertex="1">
          <mxGeometry x="-2460" y="230" width="80" height="80" as="geometry" />
        </mxCell>
        <mxCell id="gbSJtvOBGEGAZwpAqEEM-71" style="edgeStyle=orthogonalEdgeStyle;rounded=0;orthogonalLoop=1;jettySize=auto;html=1;" parent="1" source="gbSJtvOBGEGAZwpAqEEM-70" target="gbSJtvOBGEGAZwpAqEEM-69" edge="1">
          <mxGeometry relative="1" as="geometry" />
        </mxCell>
        <mxCell id="gbSJtvOBGEGAZwpAqEEM-70" value="CMS" style="rounded=0;whiteSpace=wrap;html=1;" parent="1" vertex="1">
          <mxGeometry x="-2481" y="600" width="231" height="60" as="geometry" />
        </mxCell>
        <mxCell id="gbSJtvOBGEGAZwpAqEEM-89" style="edgeStyle=orthogonalEdgeStyle;rounded=0;orthogonalLoop=1;jettySize=auto;html=1;" parent="1" source="gbSJtvOBGEGAZwpAqEEM-72" target="gbSJtvOBGEGAZwpAqEEM-87" edge="1">
          <mxGeometry relative="1" as="geometry" />
        </mxCell>
        <mxCell id="gbSJtvOBGEGAZwpAqEEM-72" value="" style="shape=cylinder3;whiteSpace=wrap;html=1;boundedLbl=1;backgroundOutline=1;size=15;" parent="1" vertex="1">
          <mxGeometry x="-2460" y="890" width="60" height="80" as="geometry" />
        </mxCell>
        <mxCell id="gbSJtvOBGEGAZwpAqEEM-74" value="" style="shape=cylinder3;whiteSpace=wrap;html=1;boundedLbl=1;backgroundOutline=1;size=15;" parent="1" vertex="1">
          <mxGeometry x="-2430" y="920" width="60" height="80" as="geometry" />
        </mxCell>
        <mxCell id="gbSJtvOBGEGAZwpAqEEM-75" value="" style="shape=cylinder3;whiteSpace=wrap;html=1;boundedLbl=1;backgroundOutline=1;size=15;" parent="1" vertex="1">
          <mxGeometry x="-2320" y="890" width="60" height="80" as="geometry" />
        </mxCell>
        <mxCell id="gbSJtvOBGEGAZwpAqEEM-76" value="" style="shape=cylinder3;whiteSpace=wrap;html=1;boundedLbl=1;backgroundOutline=1;size=15;" parent="1" vertex="1">
          <mxGeometry x="-2290" y="920" width="60" height="80" as="geometry" />
        </mxCell>
        <mxCell id="gbSJtvOBGEGAZwpAqEEM-79" style="edgeStyle=orthogonalEdgeStyle;rounded=0;orthogonalLoop=1;jettySize=auto;html=1;entryX=0.75;entryY=1;entryDx=0;entryDy=0;" parent="1" source="gbSJtvOBGEGAZwpAqEEM-78" target="gbSJtvOBGEGAZwpAqEEM-69" edge="1">
          <mxGeometry relative="1" as="geometry" />
        </mxCell>
        <mxCell id="gbSJtvOBGEGAZwpAqEEM-78" value="code" style="shape=note;whiteSpace=wrap;html=1;backgroundOutline=1;darkOpacity=0.05;" parent="1" vertex="1">
          <mxGeometry x="-2360" y="300" width="80" height="100" as="geometry" />
        </mxCell>
        <mxCell id="gbSJtvOBGEGAZwpAqEEM-80" style="edgeStyle=orthogonalEdgeStyle;rounded=0;orthogonalLoop=1;jettySize=auto;html=1;entryX=0;entryY=0;entryDx=80;entryDy=65;entryPerimeter=0;" parent="1" source="gbSJtvOBGEGAZwpAqEEM-76" target="gbSJtvOBGEGAZwpAqEEM-78" edge="1">
          <mxGeometry relative="1" as="geometry">
            <Array as="points">
              <mxPoint x="-2200" y="960" />
              <mxPoint x="-2200" y="365" />
            </Array>
          </mxGeometry>
        </mxCell>
        <mxCell id="gbSJtvOBGEGAZwpAqEEM-83" style="edgeStyle=orthogonalEdgeStyle;rounded=0;orthogonalLoop=1;jettySize=auto;html=1;" parent="1" source="gbSJtvOBGEGAZwpAqEEM-81" target="gbSJtvOBGEGAZwpAqEEM-69" edge="1">
          <mxGeometry relative="1" as="geometry" />
        </mxCell>
        <mxCell id="gbSJtvOBGEGAZwpAqEEM-81" value="code" style="shape=note;whiteSpace=wrap;html=1;backgroundOutline=1;darkOpacity=0.05;" parent="1" vertex="1">
          <mxGeometry x="-2130" y="305" width="80" height="100" as="geometry" />
        </mxCell>
        <mxCell id="gbSJtvOBGEGAZwpAqEEM-82" style="edgeStyle=orthogonalEdgeStyle;rounded=0;orthogonalLoop=1;jettySize=auto;html=1;entryX=0.5;entryY=1;entryDx=0;entryDy=0;entryPerimeter=0;" parent="1" source="gbSJtvOBGEGAZwpAqEEM-76" target="gbSJtvOBGEGAZwpAqEEM-81" edge="1">
          <mxGeometry relative="1" as="geometry" />
        </mxCell>
        <mxCell id="gbSJtvOBGEGAZwpAqEEM-85" style="edgeStyle=orthogonalEdgeStyle;rounded=0;orthogonalLoop=1;jettySize=auto;html=1;entryX=0;entryY=0.5;entryDx=0;entryDy=0;" parent="1" source="gbSJtvOBGEGAZwpAqEEM-84" target="gbSJtvOBGEGAZwpAqEEM-69" edge="1">
          <mxGeometry relative="1" as="geometry" />
        </mxCell>
        <mxCell id="gbSJtvOBGEGAZwpAqEEM-84" value="code" style="shape=note;whiteSpace=wrap;html=1;backgroundOutline=1;darkOpacity=0.05;" parent="1" vertex="1">
          <mxGeometry x="-2770" y="300" width="80" height="100" as="geometry" />
        </mxCell>
        <mxCell id="gbSJtvOBGEGAZwpAqEEM-90" style="edgeStyle=orthogonalEdgeStyle;rounded=0;orthogonalLoop=1;jettySize=auto;html=1;entryX=0;entryY=0.75;entryDx=0;entryDy=0;" parent="1" source="gbSJtvOBGEGAZwpAqEEM-86" target="gbSJtvOBGEGAZwpAqEEM-70" edge="1">
          <mxGeometry relative="1" as="geometry" />
        </mxCell>
        <mxCell id="gbSJtvOBGEGAZwpAqEEM-86" value="Server" style="image;html=1;image=img/lib/clip_art/computers/Server_128x128.png" parent="1" vertex="1">
          <mxGeometry x="-2710" y="740" width="80" height="80" as="geometry" />
        </mxCell>
        <mxCell id="gbSJtvOBGEGAZwpAqEEM-87" value="" style="shape=cylinder3;whiteSpace=wrap;html=1;boundedLbl=1;backgroundOutline=1;size=15;" parent="1" vertex="1">
          <mxGeometry x="-2710" y="840" width="60" height="80" as="geometry" />
        </mxCell>
        <mxCell id="gbSJtvOBGEGAZwpAqEEM-88" style="edgeStyle=orthogonalEdgeStyle;rounded=0;orthogonalLoop=1;jettySize=auto;html=1;entryX=0;entryY=0;entryDx=0;entryDy=52.5;entryPerimeter=0;" parent="1" source="gbSJtvOBGEGAZwpAqEEM-84" target="gbSJtvOBGEGAZwpAqEEM-87" edge="1">
          <mxGeometry relative="1" as="geometry" />
        </mxCell>
        <mxCell id="gbSJtvOBGEGAZwpAqEEM-91" value="code" style="shape=note;whiteSpace=wrap;html=1;backgroundOutline=1;darkOpacity=0.05;" parent="1" vertex="1">
          <mxGeometry x="-2894" y="360" width="80" height="100" as="geometry" />
        </mxCell>
        <mxCell id="gbSJtvOBGEGAZwpAqEEM-92" style="edgeStyle=orthogonalEdgeStyle;rounded=0;orthogonalLoop=1;jettySize=auto;html=1;entryX=0;entryY=1;entryDx=0;entryDy=-15;entryPerimeter=0;" parent="1" source="gbSJtvOBGEGAZwpAqEEM-91" target="gbSJtvOBGEGAZwpAqEEM-87" edge="1">
          <mxGeometry relative="1" as="geometry" />
        </mxCell>
        <mxCell id="gbSJtvOBGEGAZwpAqEEM-93" value="X" style="whiteSpace=wrap;html=1;aspect=fixed;" parent="1" vertex="1">
          <mxGeometry x="-2460" y="170" width="80" height="80" as="geometry" />
        </mxCell>
        <mxCell id="gbSJtvOBGEGAZwpAqEEM-94" value="" style="endArrow=none;html=1;rounded=0;" parent="1" edge="1">
          <mxGeometry width="50" height="50" relative="1" as="geometry">
            <mxPoint x="-2930" y="550" as="sourcePoint" />
            <mxPoint x="-1920" y="550" as="targetPoint" />
          </mxGeometry>
        </mxCell>
        <mxCell id="gbSJtvOBGEGAZwpAqEEM-95" value="" style="shape=cylinder3;whiteSpace=wrap;html=1;boundedLbl=1;backgroundOutline=1;size=15;" parent="1" vertex="1">
          <mxGeometry x="-2700" y="880" width="60" height="80" as="geometry" />
        </mxCell>
        <mxCell id="gbSJtvOBGEGAZwpAqEEM-96" value="DEV" style="text;html=1;align=center;verticalAlign=middle;whiteSpace=wrap;rounded=0;" parent="1" vertex="1">
          <mxGeometry x="-2924" y="230" width="60" height="30" as="geometry" />
        </mxCell>
        <mxCell id="gbSJtvOBGEGAZwpAqEEM-97" value="OPS" style="text;html=1;align=center;verticalAlign=middle;whiteSpace=wrap;rounded=0;" parent="1" vertex="1">
          <mxGeometry x="-2910" y="655" width="60" height="30" as="geometry" />
        </mxCell>
        <mxCell id="gbSJtvOBGEGAZwpAqEEM-98" value="code" style="shape=note;whiteSpace=wrap;html=1;backgroundOutline=1;darkOpacity=0.05;" parent="1" vertex="1">
          <mxGeometry x="-1930" y="330" width="80" height="100" as="geometry" />
        </mxCell>
        <mxCell id="gbSJtvOBGEGAZwpAqEEM-99" style="edgeStyle=orthogonalEdgeStyle;rounded=0;orthogonalLoop=1;jettySize=auto;html=1;entryX=0.5;entryY=1;entryDx=0;entryDy=0;entryPerimeter=0;" parent="1" source="gbSJtvOBGEGAZwpAqEEM-98" target="gbSJtvOBGEGAZwpAqEEM-95" edge="1">
          <mxGeometry relative="1" as="geometry">
            <Array as="points">
              <mxPoint x="-1890" y="1040" />
              <mxPoint x="-2670" y="1040" />
            </Array>
          </mxGeometry>
        </mxCell>
        <mxCell id="gbSJtvOBGEGAZwpAqEEM-100" value="API" style="rounded=0;whiteSpace=wrap;html=1;" parent="1" vertex="1">
          <mxGeometry x="-1710" y="505" width="120" height="60" as="geometry" />
        </mxCell>
        <mxCell id="gbSJtvOBGEGAZwpAqEEM-103" style="edgeStyle=orthogonalEdgeStyle;rounded=0;orthogonalLoop=1;jettySize=auto;html=1;entryX=1;entryY=0.5;entryDx=0;entryDy=0;" parent="1" source="gbSJtvOBGEGAZwpAqEEM-102" target="gbSJtvOBGEGAZwpAqEEM-62" edge="1">
          <mxGeometry relative="1" as="geometry" />
        </mxCell>
        <mxCell id="gbSJtvOBGEGAZwpAqEEM-104" style="edgeStyle=orthogonalEdgeStyle;rounded=0;orthogonalLoop=1;jettySize=auto;html=1;" parent="1" source="gbSJtvOBGEGAZwpAqEEM-102" target="gbSJtvOBGEGAZwpAqEEM-64" edge="1">
          <mxGeometry relative="1" as="geometry" />
        </mxCell>
        <mxCell id="gbSJtvOBGEGAZwpAqEEM-102" value="https://www.chip.de/bestenlisten/bla.html&lt;div&gt;&lt;br&gt;&lt;/div&gt;&lt;div&gt;https://www.chip.de&lt;b&gt;/api/v1/articles&lt;/b&gt;&lt;br&gt;&lt;/div&gt;&lt;div&gt;https://www.chip.de&lt;b&gt;/api/v2/articles&lt;/b&gt;&lt;b&gt;&lt;br&gt;&lt;/b&gt;&lt;/div&gt;" style="text;html=1;align=center;verticalAlign=middle;whiteSpace=wrap;rounded=0;" parent="1" vertex="1">
          <mxGeometry x="-1400" y="420" width="310" height="90" as="geometry" />
        </mxCell>
        <mxCell id="gbSJtvOBGEGAZwpAqEEM-106" style="edgeStyle=orthogonalEdgeStyle;rounded=0;orthogonalLoop=1;jettySize=auto;html=1;" parent="1" source="gbSJtvOBGEGAZwpAqEEM-105" target="gbSJtvOBGEGAZwpAqEEM-62" edge="1">
          <mxGeometry relative="1" as="geometry">
            <Array as="points">
              <mxPoint x="-1340" y="550" />
            </Array>
          </mxGeometry>
        </mxCell>
        <mxCell id="gbSJtvOBGEGAZwpAqEEM-105" value="Server" style="image;html=1;image=img/lib/clip_art/computers/Server_128x128.png" parent="1" vertex="1">
          <mxGeometry x="-1340" y="660" width="80" height="80" as="geometry" />
        </mxCell>
      </root>
    </mxGraphModel>
  </diagram>
</mxfile>
